<mxfile host="Electron" modified="2024-04-15T02:02:21.875Z" agent="Mozilla/5.0 (Macintosh; Intel Mac OS X 10_15_7) AppleWebKit/537.36 (KHTML, like Gecko) draw.io/24.2.5 Chrome/120.0.6099.109 Electron/28.1.0 Safari/537.36" etag="NWDsUH4EPBbXzWVzvKSY" version="24.2.5" type="device" pages="3">
  <diagram id="GU4G61x0W2jrhCoQgWN6" name="figure1">
    <mxGraphModel dx="378" dy="805" grid="1" gridSize="10" guides="1" tooltips="1" connect="1" arrows="1" fold="1" page="1" pageScale="1" pageWidth="680" pageHeight="500" math="0" shadow="0">
      <root>
        <mxCell id="0" />
        <mxCell id="1" parent="0" />
        <mxCell id="lL1TapERudLG2ZnHBbzP-45" style="edgeStyle=orthogonalEdgeStyle;rounded=0;orthogonalLoop=1;jettySize=auto;html=1;exitX=0.5;exitY=1;exitDx=0;exitDy=0;entryX=0.5;entryY=0;entryDx=0;entryDy=0;" parent="1" source="lL1TapERudLG2ZnHBbzP-3" target="lL1TapERudLG2ZnHBbzP-6" edge="1">
          <mxGeometry relative="1" as="geometry" />
        </mxCell>
        <mxCell id="lL1TapERudLG2ZnHBbzP-3" value="Enter pin" style="rounded=1;whiteSpace=wrap;html=1;fillColor=#dae8fc;strokeColor=#6c8ebf;" parent="1" vertex="1">
          <mxGeometry x="100" y="120" width="80" height="40" as="geometry" />
        </mxCell>
        <mxCell id="nRUZDwv5PRinNxofDMXq-1" value="unauthorized" style="edgeStyle=orthogonalEdgeStyle;rounded=0;orthogonalLoop=1;jettySize=auto;html=1;exitX=0;exitY=0.5;exitDx=0;exitDy=0;entryX=0;entryY=0.5;entryDx=0;entryDy=0;" parent="1" source="lL1TapERudLG2ZnHBbzP-6" target="lL1TapERudLG2ZnHBbzP-3" edge="1">
          <mxGeometry relative="1" as="geometry" />
        </mxCell>
        <mxCell id="nRUZDwv5PRinNxofDMXq-2" value="authorized" style="edgeStyle=orthogonalEdgeStyle;rounded=0;orthogonalLoop=1;jettySize=auto;html=1;exitX=0.5;exitY=1;exitDx=0;exitDy=0;" parent="1" source="lL1TapERudLG2ZnHBbzP-6" target="lL1TapERudLG2ZnHBbzP-18" edge="1">
          <mxGeometry relative="1" as="geometry">
            <mxPoint as="offset" />
          </mxGeometry>
        </mxCell>
        <mxCell id="lL1TapERudLG2ZnHBbzP-6" value="" style="rhombus;whiteSpace=wrap;html=1;shadow=0;fontFamily=Helvetica;fontSize=12;align=center;strokeWidth=1;spacing=6;spacingTop=-4;fillColor=#ffe6cc;strokeColor=#d79b00;" parent="1" vertex="1">
          <mxGeometry x="120" y="200" width="40" height="40" as="geometry" />
        </mxCell>
        <mxCell id="AdqUNCNPBxmvi-GQHFV9-8" value="insufficient" style="edgeStyle=orthogonalEdgeStyle;rounded=0;orthogonalLoop=1;jettySize=auto;html=1;exitX=0.5;exitY=0;exitDx=0;exitDy=0;entryX=0.5;entryY=1;entryDx=0;entryDy=0;" parent="1" source="lL1TapERudLG2ZnHBbzP-9" target="lL1TapERudLG2ZnHBbzP-41" edge="1">
          <mxGeometry relative="1" as="geometry" />
        </mxCell>
        <mxCell id="5OS5mjMSAm63zNt-BFDT-4" value="sufficient" style="edgeStyle=orthogonalEdgeStyle;rounded=0;orthogonalLoop=1;jettySize=auto;html=1;exitX=1;exitY=0.5;exitDx=0;exitDy=0;entryX=0.5;entryY=1;entryDx=0;entryDy=0;" parent="1" source="lL1TapERudLG2ZnHBbzP-9" target="5OS5mjMSAm63zNt-BFDT-1" edge="1">
          <mxGeometry relative="1" as="geometry">
            <Array as="points">
              <mxPoint x="460" y="420" />
              <mxPoint x="460" y="200" />
              <mxPoint x="400" y="200" />
            </Array>
          </mxGeometry>
        </mxCell>
        <mxCell id="lL1TapERudLG2ZnHBbzP-9" value="" style="rhombus;whiteSpace=wrap;html=1;shadow=0;fontFamily=Helvetica;fontSize=12;align=center;strokeWidth=1;spacing=6;spacingTop=-4;fillColor=#ffe6cc;strokeColor=#d79b00;" parent="1" vertex="1">
          <mxGeometry x="380" y="400" width="40" height="40" as="geometry" />
        </mxCell>
        <mxCell id="lL1TapERudLG2ZnHBbzP-44" style="edgeStyle=orthogonalEdgeStyle;rounded=0;orthogonalLoop=1;jettySize=auto;html=1;exitX=0.5;exitY=1;exitDx=0;exitDy=0;entryX=0.5;entryY=0;entryDx=0;entryDy=0;" parent="1" source="lL1TapERudLG2ZnHBbzP-11" target="lL1TapERudLG2ZnHBbzP-3" edge="1">
          <mxGeometry relative="1" as="geometry" />
        </mxCell>
        <mxCell id="lL1TapERudLG2ZnHBbzP-11" value="Insert card" style="rounded=1;whiteSpace=wrap;html=1;fillColor=#dae8fc;strokeColor=#6c8ebf;" parent="1" vertex="1">
          <mxGeometry x="100" y="40" width="80" height="40" as="geometry" />
        </mxCell>
        <mxCell id="wvnjbpQwDLOUtXmIdnDG-3" style="edgeStyle=orthogonalEdgeStyle;rounded=0;orthogonalLoop=1;jettySize=auto;html=1;exitX=0.5;exitY=0;exitDx=0;exitDy=0;entryX=0.5;entryY=1;entryDx=0;entryDy=0;" parent="1" source="lL1TapERudLG2ZnHBbzP-13" target="lL1TapERudLG2ZnHBbzP-39" edge="1">
          <mxGeometry relative="1" as="geometry" />
        </mxCell>
        <mxCell id="lL1TapERudLG2ZnHBbzP-13" value="Enter amount" style="rounded=1;whiteSpace=wrap;html=1;fontSize=12;glass=0;strokeWidth=1;shadow=0;fillColor=#dae8fc;strokeColor=#6c8ebf;" parent="1" vertex="1">
          <mxGeometry x="240" y="320" width="80" height="40" as="geometry" />
        </mxCell>
        <mxCell id="AdqUNCNPBxmvi-GQHFV9-1" style="edgeStyle=orthogonalEdgeStyle;rounded=0;orthogonalLoop=1;jettySize=auto;html=1;exitX=0.5;exitY=0;exitDx=0;exitDy=0;entryX=0.5;entryY=1;entryDx=0;entryDy=0;" parent="1" source="lL1TapERudLG2ZnHBbzP-15" target="wvnjbpQwDLOUtXmIdnDG-12" edge="1">
          <mxGeometry relative="1" as="geometry" />
        </mxCell>
        <mxCell id="lL1TapERudLG2ZnHBbzP-15" value="Enter cash denomination" style="rounded=1;whiteSpace=wrap;html=1;fillColor=#dae8fc;strokeColor=#6c8ebf;" parent="1" vertex="1">
          <mxGeometry x="240" y="120" width="80" height="40" as="geometry" />
        </mxCell>
        <mxCell id="AdqUNCNPBxmvi-GQHFV9-9" style="edgeStyle=orthogonalEdgeStyle;rounded=0;orthogonalLoop=1;jettySize=auto;html=1;exitX=1;exitY=0.5;exitDx=0;exitDy=0;entryX=0;entryY=0.5;entryDx=0;entryDy=0;" parent="1" source="lL1TapERudLG2ZnHBbzP-16" target="lL1TapERudLG2ZnHBbzP-11" edge="1">
          <mxGeometry relative="1" as="geometry" />
        </mxCell>
        <mxCell id="lL1TapERudLG2ZnHBbzP-16" value="" style="ellipse;fillColor=#f5f5f5;html=1;fontColor=#333333;strokeColor=#666666;" parent="1" vertex="1">
          <mxGeometry x="40" y="50" width="20" height="20" as="geometry" />
        </mxCell>
        <mxCell id="nRUZDwv5PRinNxofDMXq-3" style="edgeStyle=orthogonalEdgeStyle;rounded=0;orthogonalLoop=1;jettySize=auto;html=1;exitX=0.5;exitY=1;exitDx=0;exitDy=0;entryX=0.5;entryY=0;entryDx=0;entryDy=0;" parent="1" source="lL1TapERudLG2ZnHBbzP-18" target="lL1TapERudLG2ZnHBbzP-23" edge="1">
          <mxGeometry relative="1" as="geometry" />
        </mxCell>
        <mxCell id="lL1TapERudLG2ZnHBbzP-18" value="Main menu" style="rounded=0;whiteSpace=wrap;html=1;fillColor=#d5e8d4;strokeColor=#82b366;" parent="1" vertex="1">
          <mxGeometry x="100" y="320" width="80" height="40" as="geometry" />
        </mxCell>
        <mxCell id="wvnjbpQwDLOUtXmIdnDG-4" style="edgeStyle=orthogonalEdgeStyle;rounded=0;orthogonalLoop=1;jettySize=auto;html=1;exitX=1;exitY=0.5;exitDx=0;exitDy=0;entryX=0;entryY=0.5;entryDx=0;entryDy=0;" parent="1" source="lL1TapERudLG2ZnHBbzP-20" target="lL1TapERudLG2ZnHBbzP-9" edge="1">
          <mxGeometry relative="1" as="geometry" />
        </mxCell>
        <mxCell id="lL1TapERudLG2ZnHBbzP-20" value="Select amount" style="rounded=1;whiteSpace=wrap;html=1;fillColor=#dae8fc;strokeColor=#6c8ebf;" parent="1" vertex="1">
          <mxGeometry x="240" y="400" width="80" height="40" as="geometry" />
        </mxCell>
        <mxCell id="wvnjbpQwDLOUtXmIdnDG-2" value="quick cash" style="edgeStyle=orthogonalEdgeStyle;rounded=0;orthogonalLoop=1;jettySize=auto;html=1;exitX=1;exitY=0.5;exitDx=0;exitDy=0;entryX=0;entryY=0.5;entryDx=0;entryDy=0;" parent="1" source="lL1TapERudLG2ZnHBbzP-23" target="lL1TapERudLG2ZnHBbzP-20" edge="1">
          <mxGeometry y="-10" relative="1" as="geometry">
            <mxPoint as="offset" />
          </mxGeometry>
        </mxCell>
        <mxCell id="AdqUNCNPBxmvi-GQHFV9-31" value="get cash" style="edgeStyle=orthogonalEdgeStyle;rounded=0;orthogonalLoop=1;jettySize=auto;html=1;exitX=1;exitY=0.5;exitDx=0;exitDy=0;entryX=0;entryY=0.5;entryDx=0;entryDy=0;" parent="1" source="lL1TapERudLG2ZnHBbzP-23" target="lL1TapERudLG2ZnHBbzP-13" edge="1">
          <mxGeometry x="0.125" relative="1" as="geometry">
            <mxPoint as="offset" />
          </mxGeometry>
        </mxCell>
        <mxCell id="lL1TapERudLG2ZnHBbzP-23" value="" style="rhombus;whiteSpace=wrap;html=1;shadow=0;fontFamily=Helvetica;fontSize=12;align=center;strokeWidth=1;spacing=6;spacingTop=-4;fillColor=#ffe6cc;strokeColor=#d79b00;" parent="1" vertex="1">
          <mxGeometry x="120" y="400" width="40" height="40" as="geometry" />
        </mxCell>
        <mxCell id="5OS5mjMSAm63zNt-BFDT-6" style="edgeStyle=orthogonalEdgeStyle;rounded=0;orthogonalLoop=1;jettySize=auto;html=1;exitX=0.5;exitY=1;exitDx=0;exitDy=0;entryX=0.5;entryY=0;entryDx=0;entryDy=0;" parent="1" source="lL1TapERudLG2ZnHBbzP-25" target="lL1TapERudLG2ZnHBbzP-27" edge="1">
          <mxGeometry relative="1" as="geometry" />
        </mxCell>
        <mxCell id="lL1TapERudLG2ZnHBbzP-25" value="Cash" style="rounded=0;whiteSpace=wrap;html=1;fillColor=#d5e8d4;strokeColor=#82b366;" parent="1" vertex="1">
          <mxGeometry x="500" y="40" width="80" height="40" as="geometry" />
        </mxCell>
        <mxCell id="AdqUNCNPBxmvi-GQHFV9-11" style="edgeStyle=orthogonalEdgeStyle;rounded=0;orthogonalLoop=1;jettySize=auto;html=1;exitX=0.5;exitY=1;exitDx=0;exitDy=0;entryX=0.5;entryY=0;entryDx=0;entryDy=0;" parent="1" source="lL1TapERudLG2ZnHBbzP-27" target="lL1TapERudLG2ZnHBbzP-36" edge="1">
          <mxGeometry relative="1" as="geometry" />
        </mxCell>
        <mxCell id="lL1TapERudLG2ZnHBbzP-27" value="Select receipt type" style="rounded=1;whiteSpace=wrap;html=1;fillColor=#dae8fc;strokeColor=#6c8ebf;" parent="1" vertex="1">
          <mxGeometry x="500" y="120" width="80" height="40" as="geometry" />
        </mxCell>
        <mxCell id="V7drLsh_83obuZ6Bdghg-1" style="edgeStyle=orthogonalEdgeStyle;rounded=0;orthogonalLoop=1;jettySize=auto;html=1;exitX=0;exitY=0.5;exitDx=0;exitDy=0;entryX=0;entryY=0.5;entryDx=0;entryDy=0;" parent="1" source="lL1TapERudLG2ZnHBbzP-32" target="AdqUNCNPBxmvi-GQHFV9-25" edge="1">
          <mxGeometry relative="1" as="geometry" />
        </mxCell>
        <mxCell id="lL1TapERudLG2ZnHBbzP-32" value="Receipt" style="rounded=0;whiteSpace=wrap;html=1;fillColor=#d5e8d4;strokeColor=#82b366;" parent="1" vertex="1">
          <mxGeometry x="500" y="320" width="80" height="40" as="geometry" />
        </mxCell>
        <mxCell id="AdqUNCNPBxmvi-GQHFV9-19" value="print &amp;amp; email" style="edgeStyle=orthogonalEdgeStyle;rounded=0;orthogonalLoop=1;jettySize=auto;html=1;exitX=0.5;exitY=1;exitDx=0;exitDy=0;entryX=0.5;entryY=0;entryDx=0;entryDy=0;" parent="1" source="lL1TapERudLG2ZnHBbzP-36" target="lL1TapERudLG2ZnHBbzP-32" edge="1">
          <mxGeometry relative="1" as="geometry" />
        </mxCell>
        <mxCell id="AdqUNCNPBxmvi-GQHFV9-29" value="email" style="edgeStyle=orthogonalEdgeStyle;rounded=0;orthogonalLoop=1;jettySize=auto;html=1;exitX=1;exitY=0.5;exitDx=0;exitDy=0;entryX=0.5;entryY=0;entryDx=0;entryDy=0;" parent="1" source="lL1TapERudLG2ZnHBbzP-36" target="AdqUNCNPBxmvi-GQHFV9-25" edge="1">
          <mxGeometry relative="1" as="geometry">
            <Array as="points">
              <mxPoint x="600" y="220" />
              <mxPoint x="600" y="380" />
              <mxPoint x="540" y="380" />
            </Array>
          </mxGeometry>
        </mxCell>
        <mxCell id="lL1TapERudLG2ZnHBbzP-36" value="" style="rhombus;whiteSpace=wrap;html=1;shadow=0;fontFamily=Helvetica;fontSize=12;align=center;strokeWidth=1;spacing=6;spacingTop=-4;fillColor=#ffe6cc;strokeColor=#d79b00;" parent="1" vertex="1">
          <mxGeometry x="520" y="200" width="40" height="40" as="geometry" />
        </mxCell>
        <mxCell id="wvnjbpQwDLOUtXmIdnDG-6" value="insufficient" style="edgeStyle=orthogonalEdgeStyle;rounded=0;orthogonalLoop=1;jettySize=auto;html=1;exitX=1;exitY=0.5;exitDx=0;exitDy=0;entryX=0;entryY=0.5;entryDx=0;entryDy=0;" parent="1" source="lL1TapERudLG2ZnHBbzP-39" target="lL1TapERudLG2ZnHBbzP-41" edge="1">
          <mxGeometry relative="1" as="geometry" />
        </mxCell>
        <mxCell id="wvnjbpQwDLOUtXmIdnDG-11" value="sufficient" style="edgeStyle=orthogonalEdgeStyle;rounded=0;orthogonalLoop=1;jettySize=auto;html=1;exitX=0.5;exitY=0;exitDx=0;exitDy=0;entryX=0.5;entryY=1;entryDx=0;entryDy=0;" parent="1" source="lL1TapERudLG2ZnHBbzP-39" target="lL1TapERudLG2ZnHBbzP-15" edge="1">
          <mxGeometry relative="1" as="geometry" />
        </mxCell>
        <mxCell id="lL1TapERudLG2ZnHBbzP-39" value="" style="rhombus;whiteSpace=wrap;html=1;shadow=0;fontFamily=Helvetica;fontSize=12;align=center;strokeWidth=1;spacing=6;spacingTop=-4;fillColor=#ffe6cc;strokeColor=#d79b00;" parent="1" vertex="1">
          <mxGeometry x="260" y="240" width="40" height="40" as="geometry" />
        </mxCell>
        <mxCell id="wvnjbpQwDLOUtXmIdnDG-8" style="edgeStyle=orthogonalEdgeStyle;rounded=0;orthogonalLoop=1;jettySize=auto;html=1;exitX=1;exitY=0.5;exitDx=0;exitDy=0;entryX=0;entryY=0.5;entryDx=0;entryDy=0;" parent="1" source="lL1TapERudLG2ZnHBbzP-41" target="lL1TapERudLG2ZnHBbzP-18" edge="1">
          <mxGeometry relative="1" as="geometry">
            <Array as="points">
              <mxPoint x="440" y="260" />
              <mxPoint x="440" y="460" />
              <mxPoint x="80" y="460" />
              <mxPoint x="80" y="340" />
            </Array>
          </mxGeometry>
        </mxCell>
        <mxCell id="lL1TapERudLG2ZnHBbzP-41" value="" style="rhombus;whiteSpace=wrap;html=1;shadow=0;fontFamily=Helvetica;fontSize=12;align=center;strokeWidth=1;spacing=6;spacingTop=-4;fillColor=#fff2cc;strokeColor=#d6b656;" parent="1" vertex="1">
          <mxGeometry x="380" y="240" width="40" height="40" as="geometry" />
        </mxCell>
        <mxCell id="AdqUNCNPBxmvi-GQHFV9-3" value="unavailable" style="edgeStyle=orthogonalEdgeStyle;rounded=0;orthogonalLoop=1;jettySize=auto;html=1;exitX=0;exitY=0.5;exitDx=0;exitDy=0;entryX=0;entryY=0.5;entryDx=0;entryDy=0;" parent="1" source="wvnjbpQwDLOUtXmIdnDG-12" target="lL1TapERudLG2ZnHBbzP-15" edge="1">
          <mxGeometry relative="1" as="geometry">
            <Array as="points">
              <mxPoint x="220" y="60" />
              <mxPoint x="220" y="140" />
            </Array>
          </mxGeometry>
        </mxCell>
        <mxCell id="5OS5mjMSAm63zNt-BFDT-2" value="available" style="edgeStyle=orthogonalEdgeStyle;rounded=0;orthogonalLoop=1;jettySize=auto;html=1;exitX=1;exitY=0.5;exitDx=0;exitDy=0;entryX=0;entryY=0.5;entryDx=0;entryDy=0;" parent="1" source="wvnjbpQwDLOUtXmIdnDG-12" target="5OS5mjMSAm63zNt-BFDT-1" edge="1">
          <mxGeometry relative="1" as="geometry" />
        </mxCell>
        <mxCell id="wvnjbpQwDLOUtXmIdnDG-12" value="" style="rhombus;whiteSpace=wrap;html=1;shadow=0;fontFamily=Helvetica;fontSize=12;align=center;strokeWidth=1;spacing=6;spacingTop=-4;fillColor=#ffe6cc;strokeColor=#d79b00;" parent="1" vertex="1">
          <mxGeometry x="260" y="40" width="40" height="40" as="geometry" />
        </mxCell>
        <mxCell id="AdqUNCNPBxmvi-GQHFV9-25" value="" style="rhombus;whiteSpace=wrap;html=1;shadow=0;fontFamily=Helvetica;fontSize=12;align=center;strokeWidth=1;spacing=6;spacingTop=-4;fillColor=#fff2cc;strokeColor=#d6b656;" parent="1" vertex="1">
          <mxGeometry x="520" y="400" width="40" height="40" as="geometry" />
        </mxCell>
        <mxCell id="esYT4tMFd-WcOckGq_nt-1" value="" style="shape=mxgraph.sysml.actFinal;html=1;verticalLabelPosition=bottom;labelBackgroundColor=#ffffff;verticalAlign=top;fillColor=#f5f5f5;fontColor=#333333;strokeColor=#666666;" parent="1" vertex="1">
          <mxGeometry x="620" y="410" width="20" height="20" as="geometry" />
        </mxCell>
        <mxCell id="esYT4tMFd-WcOckGq_nt-3" style="edgeStyle=orthogonalEdgeStyle;rounded=0;orthogonalLoop=1;jettySize=auto;html=1;exitX=1;exitY=0.5;exitDx=0;exitDy=0;entryX=0;entryY=0.5;entryDx=0;entryDy=0;entryPerimeter=0;" parent="1" source="AdqUNCNPBxmvi-GQHFV9-25" target="esYT4tMFd-WcOckGq_nt-1" edge="1">
          <mxGeometry relative="1" as="geometry" />
        </mxCell>
        <mxCell id="5OS5mjMSAm63zNt-BFDT-5" style="edgeStyle=orthogonalEdgeStyle;rounded=0;orthogonalLoop=1;jettySize=auto;html=1;exitX=1;exitY=0.5;exitDx=0;exitDy=0;entryX=0;entryY=0.5;entryDx=0;entryDy=0;" parent="1" source="5OS5mjMSAm63zNt-BFDT-1" target="lL1TapERudLG2ZnHBbzP-25" edge="1">
          <mxGeometry relative="1" as="geometry" />
        </mxCell>
        <mxCell id="5OS5mjMSAm63zNt-BFDT-1" value="" style="rhombus;whiteSpace=wrap;html=1;shadow=0;fontFamily=Helvetica;fontSize=12;align=center;strokeWidth=1;spacing=6;spacingTop=-4;fillColor=#fff2cc;strokeColor=#d6b656;" parent="1" vertex="1">
          <mxGeometry x="380" y="40" width="40" height="40" as="geometry" />
        </mxCell>
      </root>
    </mxGraphModel>
  </diagram>
  <diagram id="lqN9ZnGfkci1xSbS0FcE" name="figure2">
    <mxGraphModel dx="1242" dy="805" grid="1" gridSize="10" guides="1" tooltips="1" connect="1" arrows="1" fold="1" page="1" pageScale="1" pageWidth="680" pageHeight="420" math="0" shadow="0">
      <root>
        <mxCell id="0" />
        <mxCell id="1" parent="0" />
        <mxCell id="joCdenKaswPC8Q3o16Uj-1" value="alt" style="shape=umlFrame;whiteSpace=wrap;html=1;rounded=1;shadow=0;comic=0;labelBackgroundColor=none;strokeWidth=1;fontFamily=Verdana;fontSize=12;align=center;" vertex="1" parent="1">
          <mxGeometry x="40" y="190" width="600" height="180" as="geometry" />
        </mxCell>
        <mxCell id="joCdenKaswPC8Q3o16Uj-2" value="&lt;b&gt;&lt;font style=&quot;font-size: 14px;&quot;&gt;Customer&lt;/font&gt;&lt;/b&gt;" style="shape=umlLifeline;perimeter=lifelinePerimeter;whiteSpace=wrap;html=1;container=0;dropTarget=0;collapsible=0;recursiveResize=0;outlineConnect=0;portConstraint=eastwest;newEdgeStyle={&quot;edgeStyle&quot;:&quot;elbowEdgeStyle&quot;,&quot;elbow&quot;:&quot;vertical&quot;,&quot;curved&quot;:0,&quot;rounded&quot;:0};fillColor=#f5f5f5;strokeColor=#666666;fontColor=#333333;" vertex="1" parent="1">
          <mxGeometry x="40" y="40" width="120" height="340" as="geometry" />
        </mxCell>
        <mxCell id="joCdenKaswPC8Q3o16Uj-3" value="" style="html=1;points=[];perimeter=orthogonalPerimeter;outlineConnect=0;targetShapes=umlLifeline;portConstraint=eastwest;newEdgeStyle={&quot;edgeStyle&quot;:&quot;elbowEdgeStyle&quot;,&quot;elbow&quot;:&quot;vertical&quot;,&quot;curved&quot;:0,&quot;rounded&quot;:0};fillColor=#f5f5f5;strokeColor=#666666;fontColor=#333333;" vertex="1" parent="joCdenKaswPC8Q3o16Uj-2">
          <mxGeometry x="55" y="60" width="10" height="260" as="geometry" />
        </mxCell>
        <mxCell id="joCdenKaswPC8Q3o16Uj-4" value="dispatch" style="html=1;verticalAlign=bottom;startArrow=oval;endArrow=block;startSize=8;edgeStyle=elbowEdgeStyle;elbow=vertical;curved=0;rounded=0;" edge="1" parent="joCdenKaswPC8Q3o16Uj-2">
          <mxGeometry y="-20" relative="1" as="geometry">
            <mxPoint y="60" as="sourcePoint" />
            <mxPoint x="55" y="60.14285714285711" as="targetPoint" />
            <mxPoint as="offset" />
          </mxGeometry>
        </mxCell>
        <mxCell id="joCdenKaswPC8Q3o16Uj-5" value="&lt;font style=&quot;font-size: 14px;&quot;&gt;:ATM&lt;/font&gt;" style="shape=umlLifeline;perimeter=lifelinePerimeter;whiteSpace=wrap;html=1;container=0;dropTarget=0;collapsible=0;recursiveResize=0;outlineConnect=0;portConstraint=eastwest;newEdgeStyle={&quot;edgeStyle&quot;:&quot;elbowEdgeStyle&quot;,&quot;elbow&quot;:&quot;vertical&quot;,&quot;curved&quot;:0,&quot;rounded&quot;:0};fillColor=#dae8fc;strokeColor=#6c8ebf;" vertex="1" parent="1">
          <mxGeometry x="200" y="40" width="120" height="340" as="geometry" />
        </mxCell>
        <mxCell id="joCdenKaswPC8Q3o16Uj-6" value="" style="html=1;points=[];perimeter=orthogonalPerimeter;outlineConnect=0;targetShapes=umlLifeline;portConstraint=eastwest;newEdgeStyle={&quot;edgeStyle&quot;:&quot;elbowEdgeStyle&quot;,&quot;elbow&quot;:&quot;vertical&quot;,&quot;curved&quot;:0,&quot;rounded&quot;:0};fillColor=#dae8fc;strokeColor=#6c8ebf;" vertex="1" parent="joCdenKaswPC8Q3o16Uj-5">
          <mxGeometry x="55" y="70" width="10" height="240" as="geometry" />
        </mxCell>
        <mxCell id="joCdenKaswPC8Q3o16Uj-7" value="&lt;font face=&quot;Helvetica&quot;&gt;insert card &amp;amp; pin&lt;/font&gt;" style="html=1;verticalAlign=bottom;endArrow=block;edgeStyle=elbowEdgeStyle;elbow=horizontal;curved=0;rounded=0;align=center;" edge="1" parent="1" source="joCdenKaswPC8Q3o16Uj-3" target="joCdenKaswPC8Q3o16Uj-6">
          <mxGeometry relative="1" as="geometry">
            <mxPoint x="110" y="120" as="sourcePoint" />
            <Array as="points">
              <mxPoint x="180" y="120" />
            </Array>
            <mxPoint x="240" y="120" as="targetPoint" />
            <mxPoint as="offset" />
          </mxGeometry>
        </mxCell>
        <mxCell id="joCdenKaswPC8Q3o16Uj-8" value="&lt;font style=&quot;font-size: 14px;&quot;&gt;:BankAccount&lt;/font&gt;" style="shape=umlLifeline;perimeter=lifelinePerimeter;whiteSpace=wrap;html=1;container=0;dropTarget=0;collapsible=0;recursiveResize=0;outlineConnect=0;portConstraint=eastwest;newEdgeStyle={&quot;edgeStyle&quot;:&quot;elbowEdgeStyle&quot;,&quot;elbow&quot;:&quot;vertical&quot;,&quot;curved&quot;:0,&quot;rounded&quot;:0};fillColor=#d5e8d4;strokeColor=#82b366;" vertex="1" parent="1">
          <mxGeometry x="360" y="40" width="120" height="340" as="geometry" />
        </mxCell>
        <mxCell id="joCdenKaswPC8Q3o16Uj-9" value="" style="html=1;points=[];perimeter=orthogonalPerimeter;outlineConnect=0;targetShapes=umlLifeline;portConstraint=eastwest;newEdgeStyle={&quot;edgeStyle&quot;:&quot;elbowEdgeStyle&quot;,&quot;elbow&quot;:&quot;vertical&quot;,&quot;curved&quot;:0,&quot;rounded&quot;:0};fillColor=#d5e8d4;strokeColor=#82b366;" vertex="1" parent="joCdenKaswPC8Q3o16Uj-8">
          <mxGeometry x="55" y="80" width="10" height="50" as="geometry" />
        </mxCell>
        <mxCell id="joCdenKaswPC8Q3o16Uj-10" value="&lt;font style=&quot;font-size: 14px;&quot;&gt;:CashVault&lt;/font&gt;" style="shape=umlLifeline;perimeter=lifelinePerimeter;whiteSpace=wrap;html=1;container=0;dropTarget=0;collapsible=0;recursiveResize=0;outlineConnect=0;portConstraint=eastwest;newEdgeStyle={&quot;edgeStyle&quot;:&quot;elbowEdgeStyle&quot;,&quot;elbow&quot;:&quot;vertical&quot;,&quot;curved&quot;:0,&quot;rounded&quot;:0};fillColor=#ffe6cc;strokeColor=#d79b00;" vertex="1" parent="1">
          <mxGeometry x="520" y="40" width="120" height="340" as="geometry" />
        </mxCell>
        <mxCell id="joCdenKaswPC8Q3o16Uj-11" value="" style="html=1;points=[];perimeter=orthogonalPerimeter;outlineConnect=0;targetShapes=umlLifeline;portConstraint=eastwest;newEdgeStyle={&quot;edgeStyle&quot;:&quot;elbowEdgeStyle&quot;,&quot;elbow&quot;:&quot;vertical&quot;,&quot;curved&quot;:0,&quot;rounded&quot;:0};fillColor=#ffe6cc;strokeColor=#d79b00;" vertex="1" parent="joCdenKaswPC8Q3o16Uj-10">
          <mxGeometry x="55" y="250" width="10" height="50" as="geometry" />
        </mxCell>
        <mxCell id="joCdenKaswPC8Q3o16Uj-12" value="&lt;font face=&quot;Helvetica&quot;&gt;select withdraw&lt;/font&gt;" style="html=1;verticalAlign=bottom;endArrow=block;edgeStyle=elbowEdgeStyle;elbow=horizontal;curved=0;rounded=0;align=center;" edge="1" parent="1" source="joCdenKaswPC8Q3o16Uj-3" target="joCdenKaswPC8Q3o16Uj-6">
          <mxGeometry relative="1" as="geometry">
            <mxPoint x="110" y="220" as="sourcePoint" />
            <Array as="points">
              <mxPoint x="220" y="220" />
              <mxPoint x="220" y="200" />
              <mxPoint x="240" y="210" />
              <mxPoint x="230" y="190" />
              <mxPoint x="205" y="160" />
            </Array>
            <mxPoint x="250" y="220" as="targetPoint" />
            <mxPoint as="offset" />
          </mxGeometry>
        </mxCell>
        <mxCell id="joCdenKaswPC8Q3o16Uj-13" value="acknowledge" style="html=1;verticalAlign=bottom;endArrow=open;dashed=1;endSize=8;edgeStyle=elbowEdgeStyle;elbow=vertical;curved=0;rounded=0;" edge="1" parent="1" source="joCdenKaswPC8Q3o16Uj-6" target="joCdenKaswPC8Q3o16Uj-3">
          <mxGeometry relative="1" as="geometry">
            <mxPoint x="130" y="150" as="targetPoint" />
            <Array as="points">
              <mxPoint x="210" y="150" />
              <mxPoint x="166.25" y="130" />
              <mxPoint x="151.25" y="140" />
            </Array>
            <mxPoint x="240" y="150" as="sourcePoint" />
          </mxGeometry>
        </mxCell>
        <mxCell id="joCdenKaswPC8Q3o16Uj-14" value="validate pin" style="html=1;verticalAlign=bottom;endArrow=block;edgeStyle=elbowEdgeStyle;elbow=horizontal;curved=0;rounded=0;align=center;" edge="1" parent="1" source="joCdenKaswPC8Q3o16Uj-6" target="joCdenKaswPC8Q3o16Uj-9">
          <mxGeometry relative="1" as="geometry">
            <mxPoint x="290" y="130" as="sourcePoint" />
            <Array as="points">
              <mxPoint x="355" y="130" />
              <mxPoint x="330" y="100" />
            </Array>
            <mxPoint x="400" y="130" as="targetPoint" />
            <mxPoint as="offset" />
          </mxGeometry>
        </mxCell>
        <mxCell id="joCdenKaswPC8Q3o16Uj-15" value="report authorization" style="html=1;verticalAlign=bottom;endArrow=open;dashed=1;endSize=8;edgeStyle=elbowEdgeStyle;elbow=vertical;curved=0;rounded=0;" edge="1" parent="1" source="joCdenKaswPC8Q3o16Uj-9" target="joCdenKaswPC8Q3o16Uj-6">
          <mxGeometry relative="1" as="geometry">
            <mxPoint x="280" y="160" as="targetPoint" />
            <Array as="points">
              <mxPoint x="340" y="160" />
              <mxPoint x="316.25" y="150" />
              <mxPoint x="301.25" y="160" />
            </Array>
            <mxPoint x="400" y="160" as="sourcePoint" />
          </mxGeometry>
        </mxCell>
        <mxCell id="joCdenKaswPC8Q3o16Uj-16" value="" style="html=1;points=[];perimeter=orthogonalPerimeter;outlineConnect=0;targetShapes=umlLifeline;portConstraint=eastwest;newEdgeStyle={&quot;edgeStyle&quot;:&quot;elbowEdgeStyle&quot;,&quot;elbow&quot;:&quot;vertical&quot;,&quot;curved&quot;:0,&quot;rounded&quot;:0};fillColor=#d5e8d4;strokeColor=#82b366;" vertex="1" parent="1">
          <mxGeometry x="415" y="220" width="10" height="90" as="geometry" />
        </mxCell>
        <mxCell id="joCdenKaswPC8Q3o16Uj-17" value="&lt;font face=&quot;Courier New&quot;&gt;withdraw(amount)&lt;/font&gt;" style="html=1;verticalAlign=bottom;endArrow=block;edgeStyle=elbowEdgeStyle;elbow=horizontal;curved=0;rounded=0;align=center;" edge="1" parent="1" source="joCdenKaswPC8Q3o16Uj-6" target="joCdenKaswPC8Q3o16Uj-16">
          <mxGeometry relative="1" as="geometry">
            <mxPoint x="280" y="230" as="sourcePoint" />
            <Array as="points">
              <mxPoint x="330" y="230" />
              <mxPoint x="370" y="220" />
              <mxPoint x="400" y="200" />
              <mxPoint x="420" y="210" />
              <mxPoint x="410" y="190" />
              <mxPoint x="385" y="160" />
            </Array>
            <mxPoint x="400" y="230" as="targetPoint" />
            <mxPoint as="offset" />
          </mxGeometry>
        </mxCell>
        <mxCell id="joCdenKaswPC8Q3o16Uj-18" value="&lt;font face=&quot;Helvetica&quot;&gt;check funds&lt;/font&gt;" style="html=1;verticalAlign=bottom;endArrow=block;edgeStyle=elbowEdgeStyle;elbow=horizontal;curved=0;rounded=0;align=center;" edge="1" parent="1" source="joCdenKaswPC8Q3o16Uj-16">
          <mxGeometry x="-0.1852" relative="1" as="geometry">
            <mxPoint x="440" y="240" as="sourcePoint" />
            <Array as="points">
              <mxPoint x="480" y="240" />
              <mxPoint x="575" y="220" />
              <mxPoint x="595" y="230" />
              <mxPoint x="585" y="210" />
              <mxPoint x="560" y="180" />
            </Array>
            <mxPoint x="430" y="270" as="targetPoint" />
            <mxPoint as="offset" />
          </mxGeometry>
        </mxCell>
        <mxCell id="joCdenKaswPC8Q3o16Uj-19" value="report availability" style="html=1;verticalAlign=bottom;endArrow=open;dashed=1;endSize=8;edgeStyle=elbowEdgeStyle;elbow=vertical;curved=0;rounded=0;" edge="1" parent="1" source="joCdenKaswPC8Q3o16Uj-16" target="joCdenKaswPC8Q3o16Uj-6">
          <mxGeometry relative="1" as="geometry">
            <mxPoint x="280" y="260" as="targetPoint" />
            <Array as="points">
              <mxPoint x="380" y="260" />
              <mxPoint x="325" y="250" />
              <mxPoint x="301.25" y="240" />
              <mxPoint x="286.25" y="250" />
            </Array>
            <mxPoint x="400" y="260" as="sourcePoint" />
          </mxGeometry>
        </mxCell>
        <mxCell id="joCdenKaswPC8Q3o16Uj-20" value="&lt;font face=&quot;Courier New&quot;&gt;retrieve(amount)&lt;/font&gt;" style="html=1;verticalAlign=bottom;endArrow=block;edgeStyle=elbowEdgeStyle;elbow=horizontal;curved=0;rounded=0;align=center;" edge="1" parent="1" source="joCdenKaswPC8Q3o16Uj-16" target="joCdenKaswPC8Q3o16Uj-11">
          <mxGeometry relative="1" as="geometry">
            <mxPoint x="440" y="300" as="sourcePoint" />
            <Array as="points">
              <mxPoint x="550" y="300" />
              <mxPoint x="575" y="270" />
              <mxPoint x="595" y="280" />
              <mxPoint x="585" y="260" />
              <mxPoint x="560" y="230" />
            </Array>
            <mxPoint x="560" y="300" as="targetPoint" />
            <mxPoint as="offset" />
          </mxGeometry>
        </mxCell>
        <mxCell id="joCdenKaswPC8Q3o16Uj-21" value="eject cash" style="html=1;verticalAlign=bottom;endArrow=open;dashed=1;endSize=8;edgeStyle=elbowEdgeStyle;elbow=vertical;curved=0;rounded=0;" edge="1" parent="1" source="joCdenKaswPC8Q3o16Uj-11" target="joCdenKaswPC8Q3o16Uj-6">
          <mxGeometry relative="1" as="geometry">
            <mxPoint x="280" y="330" as="targetPoint" />
            <Array as="points">
              <mxPoint x="510" y="330" />
              <mxPoint x="335" y="320" />
              <mxPoint x="311.25" y="310" />
              <mxPoint x="296.25" y="320" />
            </Array>
            <mxPoint x="560" y="330" as="sourcePoint" />
          </mxGeometry>
        </mxCell>
        <mxCell id="joCdenKaswPC8Q3o16Uj-22" value="get cash" style="html=1;verticalAlign=bottom;endArrow=open;dashed=1;endSize=8;edgeStyle=elbowEdgeStyle;elbow=vertical;curved=0;rounded=0;" edge="1" parent="1" source="joCdenKaswPC8Q3o16Uj-6" target="joCdenKaswPC8Q3o16Uj-3">
          <mxGeometry relative="1" as="geometry">
            <mxPoint x="130" y="340" as="targetPoint" />
            <Array as="points">
              <mxPoint x="220" y="340" />
              <mxPoint x="170" y="330" />
              <mxPoint x="146.25" y="320" />
              <mxPoint x="131.25" y="330" />
            </Array>
            <mxPoint x="240" y="340" as="sourcePoint" />
          </mxGeometry>
        </mxCell>
        <mxCell id="joCdenKaswPC8Q3o16Uj-23" value="acknowledge" style="html=1;verticalAlign=bottom;endArrow=open;dashed=1;endSize=8;edgeStyle=elbowEdgeStyle;elbow=vertical;curved=0;rounded=0;" edge="1" parent="1" source="joCdenKaswPC8Q3o16Uj-6" target="joCdenKaswPC8Q3o16Uj-3">
          <mxGeometry relative="1" as="geometry">
            <mxPoint x="120" y="250" as="targetPoint" />
            <Array as="points">
              <mxPoint x="230" y="250" />
              <mxPoint x="205" y="240" />
              <mxPoint x="161.25" y="220" />
              <mxPoint x="146.25" y="230" />
            </Array>
            <mxPoint x="250" y="250" as="sourcePoint" />
          </mxGeometry>
        </mxCell>
      </root>
    </mxGraphModel>
  </diagram>
  <diagram id="xUIuV3-VYdMRj2RVvGkO" name="figure3">
    <mxGraphModel dx="1242" dy="805" grid="1" gridSize="10" guides="1" tooltips="1" connect="1" arrows="1" fold="1" page="1" pageScale="1" pageWidth="680" pageHeight="560" math="0" shadow="0">
      <root>
        <mxCell id="0" />
        <mxCell id="1" parent="0" />
        <mxCell id="KVkupCU21q3vFvp9AV5L-1" value="playback" style="shape=umlFrame;whiteSpace=wrap;html=1;rounded=1;shadow=0;comic=0;labelBackgroundColor=none;strokeWidth=1;fontFamily=Verdana;fontSize=12;align=center;" vertex="1" parent="1">
          <mxGeometry x="100" y="200" width="480" height="200" as="geometry" />
        </mxCell>
        <mxCell id="KVkupCU21q3vFvp9AV5L-2" value="" style="shape=ellipse;html=1;fillColor=#f5f5f5;fontSize=18;fontColor=#333333;strokeColor=#666666;" vertex="1" parent="1">
          <mxGeometry x="40" y="90" width="20" height="20" as="geometry" />
        </mxCell>
        <mxCell id="KVkupCU21q3vFvp9AV5L-3" value="rewind" style="edgeStyle=orthogonalEdgeStyle;rounded=0;orthogonalLoop=1;jettySize=auto;html=1;exitX=0.25;exitY=1;exitDx=0;exitDy=0;entryX=0.25;entryY=0;entryDx=0;entryDy=0;" edge="1" parent="1" source="KVkupCU21q3vFvp9AV5L-6" target="KVkupCU21q3vFvp9AV5L-24">
          <mxGeometry x="-0.25" relative="1" as="geometry">
            <mxPoint as="offset" />
          </mxGeometry>
        </mxCell>
        <mxCell id="KVkupCU21q3vFvp9AV5L-4" value="fast-forward" style="edgeStyle=orthogonalEdgeStyle;rounded=0;orthogonalLoop=1;jettySize=auto;html=1;exitX=0;exitY=0.25;exitDx=0;exitDy=0;entryX=1;entryY=0.25;entryDx=0;entryDy=0;" edge="1" parent="1" source="KVkupCU21q3vFvp9AV5L-6" target="KVkupCU21q3vFvp9AV5L-31">
          <mxGeometry x="-0.25" relative="1" as="geometry">
            <mxPoint as="offset" />
          </mxGeometry>
        </mxCell>
        <mxCell id="KVkupCU21q3vFvp9AV5L-5" value="pause" style="rounded=0;orthogonalLoop=1;jettySize=auto;html=1;exitX=0;exitY=0.75;exitDx=0;exitDy=0;entryX=0.75;entryY=0;entryDx=0;entryDy=0;" edge="1" parent="1" source="KVkupCU21q3vFvp9AV5L-6" target="KVkupCU21q3vFvp9AV5L-28">
          <mxGeometry x="-0.3104" y="-1" relative="1" as="geometry">
            <mxPoint as="offset" />
          </mxGeometry>
        </mxCell>
        <mxCell id="KVkupCU21q3vFvp9AV5L-6" value="Playing" style="html=1;align=center;verticalAlign=middle;rounded=1;absoluteArcSize=1;arcSize=10;whiteSpace=wrap;fillColor=#d5e8d4;strokeColor=#82b366;" vertex="1" parent="1">
          <mxGeometry x="480" y="220" width="80" height="40" as="geometry" />
        </mxCell>
        <mxCell id="KVkupCU21q3vFvp9AV5L-7" value="play" style="edgeStyle=orthogonalEdgeStyle;rounded=0;orthogonalLoop=1;jettySize=auto;html=1;exitX=0.75;exitY=0;exitDx=0;exitDy=0;entryX=0.5;entryY=0;entryDx=0;entryDy=0;" edge="1" parent="1" source="KVkupCU21q3vFvp9AV5L-9" target="KVkupCU21q3vFvp9AV5L-19">
          <mxGeometry relative="1" as="geometry" />
        </mxCell>
        <mxCell id="KVkupCU21q3vFvp9AV5L-8" value="eject" style="edgeStyle=orthogonalEdgeStyle;rounded=0;orthogonalLoop=1;jettySize=auto;html=1;exitX=1;exitY=0.25;exitDx=0;exitDy=0;entryX=0;entryY=0.25;entryDx=0;entryDy=0;" edge="1" parent="1" source="KVkupCU21q3vFvp9AV5L-9" target="KVkupCU21q3vFvp9AV5L-12">
          <mxGeometry relative="1" as="geometry" />
        </mxCell>
        <mxCell id="KVkupCU21q3vFvp9AV5L-9" value="Idle" style="swimlane;fontStyle=0;align=center;verticalAlign=top;childLayout=stackLayout;horizontal=1;startSize=30;horizontalStack=0;resizeParent=1;resizeParentMax=0;resizeLast=0;collapsible=0;marginBottom=0;html=1;rounded=1;absoluteArcSize=1;arcSize=50;whiteSpace=wrap;fillColor=#dae8fc;strokeColor=#6c8ebf;" vertex="1" parent="1">
          <mxGeometry x="100" y="60" width="120" height="80" as="geometry" />
        </mxCell>
        <mxCell id="KVkupCU21q3vFvp9AV5L-10" value="&lt;font style=&quot;font-size: 11px;&quot;&gt;do: play current DVD&lt;/font&gt;" style="fillColor=none;strokeColor=none;align=left;verticalAlign=middle;spacingLeft=5;whiteSpace=wrap;html=1;" vertex="1" parent="KVkupCU21q3vFvp9AV5L-9">
          <mxGeometry y="30" width="120" height="25" as="geometry" />
        </mxCell>
        <mxCell id="KVkupCU21q3vFvp9AV5L-11" value="&lt;font style=&quot;font-size: 11px;&quot;&gt;do: eject tray&lt;/font&gt;" style="fillColor=none;strokeColor=none;align=left;verticalAlign=middle;spacingLeft=5;whiteSpace=wrap;html=1;" vertex="1" parent="KVkupCU21q3vFvp9AV5L-9">
          <mxGeometry y="55" width="120" height="25" as="geometry" />
        </mxCell>
        <mxCell id="KVkupCU21q3vFvp9AV5L-12" value="Tray Open" style="swimlane;fontStyle=0;align=center;verticalAlign=top;childLayout=stackLayout;horizontal=1;startSize=30;horizontalStack=0;resizeParent=1;resizeParentMax=0;resizeLast=0;collapsible=0;marginBottom=0;html=1;rounded=1;absoluteArcSize=1;arcSize=50;whiteSpace=wrap;fillColor=#dae8fc;strokeColor=#6c8ebf;" vertex="1" parent="1">
          <mxGeometry x="300" y="60" width="120" height="80" as="geometry" />
        </mxCell>
        <mxCell id="KVkupCU21q3vFvp9AV5L-13" value="&lt;font style=&quot;font-size: 11px;&quot;&gt;do: enter DVD&lt;/font&gt;" style="fillColor=none;strokeColor=none;align=left;verticalAlign=middle;spacingLeft=5;whiteSpace=wrap;html=1;" vertex="1" parent="KVkupCU21q3vFvp9AV5L-12">
          <mxGeometry y="30" width="120" height="25" as="geometry" />
        </mxCell>
        <mxCell id="KVkupCU21q3vFvp9AV5L-14" value="&lt;font style=&quot;font-size: 11px;&quot;&gt;do: cancel&lt;/font&gt;" style="fillColor=none;strokeColor=none;align=left;verticalAlign=middle;spacingLeft=5;whiteSpace=wrap;html=1;" vertex="1" parent="KVkupCU21q3vFvp9AV5L-12">
          <mxGeometry y="55" width="120" height="25" as="geometry" />
        </mxCell>
        <mxCell id="KVkupCU21q3vFvp9AV5L-15" value="restart" style="edgeStyle=orthogonalEdgeStyle;rounded=0;orthogonalLoop=1;jettySize=auto;html=1;exitX=0;exitY=0.5;exitDx=0;exitDy=0;entryX=0.5;entryY=1;entryDx=0;entryDy=0;" edge="1" parent="1" source="KVkupCU21q3vFvp9AV5L-16" target="KVkupCU21q3vFvp9AV5L-11">
          <mxGeometry relative="1" as="geometry">
            <Array as="points">
              <mxPoint x="80" y="490" />
              <mxPoint x="80" y="170" />
              <mxPoint x="160" y="170" />
            </Array>
          </mxGeometry>
        </mxCell>
        <mxCell id="KVkupCU21q3vFvp9AV5L-16" value="Stopped" style="swimlane;fontStyle=0;align=center;verticalAlign=top;childLayout=stackLayout;horizontal=1;startSize=30;horizontalStack=0;resizeParent=1;resizeParentMax=0;resizeLast=0;collapsible=0;marginBottom=0;html=1;rounded=1;absoluteArcSize=1;arcSize=50;whiteSpace=wrap;fillColor=#dae8fc;strokeColor=#6c8ebf;" vertex="1" parent="1">
          <mxGeometry x="420" y="460" width="120" height="60" as="geometry" />
        </mxCell>
        <mxCell id="KVkupCU21q3vFvp9AV5L-17" value="&lt;font style=&quot;font-size: 11px;&quot;&gt;do: halt playback&lt;/font&gt;" style="fillColor=none;strokeColor=none;align=left;verticalAlign=middle;spacingLeft=5;whiteSpace=wrap;html=1;" vertex="1" parent="KVkupCU21q3vFvp9AV5L-16">
          <mxGeometry y="30" width="120" height="30" as="geometry" />
        </mxCell>
        <mxCell id="KVkupCU21q3vFvp9AV5L-18" value="" style="shape=mxgraph.sysml.actFinal;html=1;verticalLabelPosition=bottom;labelBackgroundColor=#ffffff;verticalAlign=top;fillColor=#f5f5f5;fontColor=#333333;strokeColor=#666666;" vertex="1" parent="1">
          <mxGeometry x="620" y="480" width="20" height="20" as="geometry" />
        </mxCell>
        <mxCell id="KVkupCU21q3vFvp9AV5L-19" value="DVD Menu" style="swimlane;fontStyle=0;align=center;verticalAlign=top;childLayout=stackLayout;horizontal=1;startSize=30;horizontalStack=0;resizeParent=1;resizeParentMax=0;resizeLast=0;collapsible=0;marginBottom=0;html=1;rounded=1;absoluteArcSize=1;arcSize=50;whiteSpace=wrap;fillColor=#dae8fc;strokeColor=#6c8ebf;" vertex="1" parent="1">
          <mxGeometry x="460" y="60" width="120" height="80" as="geometry" />
        </mxCell>
        <mxCell id="KVkupCU21q3vFvp9AV5L-20" value="&lt;font style=&quot;font-size: 11px;&quot;&gt;do: play movie&lt;/font&gt;" style="fillColor=none;strokeColor=none;align=left;verticalAlign=middle;spacingLeft=5;whiteSpace=wrap;html=1;" vertex="1" parent="KVkupCU21q3vFvp9AV5L-19">
          <mxGeometry y="30" width="120" height="25" as="geometry" />
        </mxCell>
        <mxCell id="KVkupCU21q3vFvp9AV5L-21" value="&lt;font style=&quot;font-size: 11px;&quot;&gt;do: select language&lt;/font&gt;" style="fillColor=none;strokeColor=none;align=left;verticalAlign=middle;spacingLeft=5;whiteSpace=wrap;html=1;" vertex="1" parent="KVkupCU21q3vFvp9AV5L-19">
          <mxGeometry y="55" width="120" height="25" as="geometry" />
        </mxCell>
        <mxCell id="KVkupCU21q3vFvp9AV5L-22" value="resume" style="edgeStyle=orthogonalEdgeStyle;rounded=0;orthogonalLoop=1;jettySize=auto;html=1;exitX=0.75;exitY=0;exitDx=0;exitDy=0;entryX=0.75;entryY=1;entryDx=0;entryDy=0;" edge="1" parent="1" source="KVkupCU21q3vFvp9AV5L-24" target="KVkupCU21q3vFvp9AV5L-6">
          <mxGeometry x="-0.25" relative="1" as="geometry">
            <mxPoint as="offset" />
          </mxGeometry>
        </mxCell>
        <mxCell id="KVkupCU21q3vFvp9AV5L-23" value="pause" style="edgeStyle=orthogonalEdgeStyle;rounded=0;orthogonalLoop=1;jettySize=auto;html=1;exitX=0;exitY=0.75;exitDx=0;exitDy=0;entryX=1;entryY=0.75;entryDx=0;entryDy=0;" edge="1" parent="1" source="KVkupCU21q3vFvp9AV5L-24" target="KVkupCU21q3vFvp9AV5L-28">
          <mxGeometry x="-0.25" relative="1" as="geometry">
            <mxPoint as="offset" />
          </mxGeometry>
        </mxCell>
        <mxCell id="KVkupCU21q3vFvp9AV5L-24" value="Rewinding" style="html=1;align=center;verticalAlign=middle;rounded=1;absoluteArcSize=1;arcSize=10;whiteSpace=wrap;fillColor=#d5e8d4;strokeColor=#82b366;" vertex="1" parent="1">
          <mxGeometry x="480" y="340" width="80" height="40" as="geometry" />
        </mxCell>
        <mxCell id="KVkupCU21q3vFvp9AV5L-25" value="resume" style="rounded=0;orthogonalLoop=1;jettySize=auto;html=1;exitX=1;exitY=0.25;exitDx=0;exitDy=0;entryX=0;entryY=1;entryDx=0;entryDy=0;" edge="1" parent="1" source="KVkupCU21q3vFvp9AV5L-28" target="KVkupCU21q3vFvp9AV5L-6">
          <mxGeometry x="-0.2603" y="-4" relative="1" as="geometry">
            <mxPoint y="-1" as="offset" />
          </mxGeometry>
        </mxCell>
        <mxCell id="KVkupCU21q3vFvp9AV5L-26" value="rewind" style="edgeStyle=orthogonalEdgeStyle;rounded=0;orthogonalLoop=1;jettySize=auto;html=1;exitX=1;exitY=0.5;exitDx=0;exitDy=0;entryX=0;entryY=0.5;entryDx=0;entryDy=0;" edge="1" parent="1" source="KVkupCU21q3vFvp9AV5L-28" target="KVkupCU21q3vFvp9AV5L-24">
          <mxGeometry x="-0.1667" relative="1" as="geometry">
            <mxPoint as="offset" />
          </mxGeometry>
        </mxCell>
        <mxCell id="KVkupCU21q3vFvp9AV5L-27" value="fast-forward" style="edgeStyle=orthogonalEdgeStyle;rounded=0;orthogonalLoop=1;jettySize=auto;html=1;exitX=0.5;exitY=0;exitDx=0;exitDy=0;entryX=0.5;entryY=1;entryDx=0;entryDy=0;" edge="1" parent="1" source="KVkupCU21q3vFvp9AV5L-28" target="KVkupCU21q3vFvp9AV5L-31">
          <mxGeometry x="-0.25" y="-20" relative="1" as="geometry">
            <mxPoint as="offset" />
          </mxGeometry>
        </mxCell>
        <mxCell id="KVkupCU21q3vFvp9AV5L-28" value="Paused" style="html=1;align=center;verticalAlign=middle;rounded=1;absoluteArcSize=1;arcSize=10;whiteSpace=wrap;fillColor=#d5e8d4;strokeColor=#82b366;" vertex="1" parent="1">
          <mxGeometry x="160" y="340" width="80" height="40" as="geometry" />
        </mxCell>
        <mxCell id="KVkupCU21q3vFvp9AV5L-29" value="resume" style="edgeStyle=orthogonalEdgeStyle;rounded=0;orthogonalLoop=1;jettySize=auto;html=1;exitX=1;exitY=0.5;exitDx=0;exitDy=0;entryX=0;entryY=0.5;entryDx=0;entryDy=0;" edge="1" parent="1" source="KVkupCU21q3vFvp9AV5L-31" target="KVkupCU21q3vFvp9AV5L-6">
          <mxGeometry x="-0.3333" relative="1" as="geometry">
            <mxPoint as="offset" />
          </mxGeometry>
        </mxCell>
        <mxCell id="KVkupCU21q3vFvp9AV5L-30" value="pause" style="edgeStyle=orthogonalEdgeStyle;rounded=0;orthogonalLoop=1;jettySize=auto;html=1;exitX=0.25;exitY=1;exitDx=0;exitDy=0;entryX=0.25;entryY=0;entryDx=0;entryDy=0;" edge="1" parent="1" source="KVkupCU21q3vFvp9AV5L-31" target="KVkupCU21q3vFvp9AV5L-28">
          <mxGeometry x="-0.25" relative="1" as="geometry">
            <mxPoint as="offset" />
          </mxGeometry>
        </mxCell>
        <mxCell id="KVkupCU21q3vFvp9AV5L-31" value="Fast-forwarding" style="html=1;align=center;verticalAlign=middle;rounded=1;absoluteArcSize=1;arcSize=10;whiteSpace=wrap;fillColor=#d5e8d4;strokeColor=#82b366;" vertex="1" parent="1">
          <mxGeometry x="160" y="220" width="80" height="40" as="geometry" />
        </mxCell>
        <mxCell id="KVkupCU21q3vFvp9AV5L-32" value="exit" style="edgeStyle=orthogonalEdgeStyle;rounded=0;orthogonalLoop=1;jettySize=auto;html=1;exitX=0.75;exitY=1;exitDx=0;exitDy=0;" edge="1" parent="1">
          <mxGeometry relative="1" as="geometry">
            <mxPoint x="479.62" y="400" as="sourcePoint" />
            <mxPoint x="480" y="460" as="targetPoint" />
          </mxGeometry>
        </mxCell>
        <mxCell id="KVkupCU21q3vFvp9AV5L-33" value="stop" style="edgeStyle=orthogonalEdgeStyle;rounded=0;orthogonalLoop=1;jettySize=auto;html=1;exitX=1;exitY=0;exitDx=0;exitDy=0;entryX=0;entryY=0.5;entryDx=0;entryDy=0;entryPerimeter=0;" edge="1" parent="1" source="KVkupCU21q3vFvp9AV5L-17" target="KVkupCU21q3vFvp9AV5L-18">
          <mxGeometry relative="1" as="geometry">
            <Array as="points">
              <mxPoint x="590" y="490" />
              <mxPoint x="590" y="490" />
            </Array>
          </mxGeometry>
        </mxCell>
        <mxCell id="KVkupCU21q3vFvp9AV5L-34" style="edgeStyle=orthogonalEdgeStyle;rounded=0;orthogonalLoop=1;jettySize=auto;html=1;exitX=1;exitY=0.5;exitDx=0;exitDy=0;entryX=-0.002;entryY=0.384;entryDx=0;entryDy=0;entryPerimeter=0;" edge="1" parent="1" source="KVkupCU21q3vFvp9AV5L-2" target="KVkupCU21q3vFvp9AV5L-10">
          <mxGeometry relative="1" as="geometry" />
        </mxCell>
        <mxCell id="KVkupCU21q3vFvp9AV5L-35" value="cancel" style="edgeStyle=orthogonalEdgeStyle;rounded=0;orthogonalLoop=1;jettySize=auto;html=1;exitX=0;exitY=0.25;exitDx=0;exitDy=0;entryX=1;entryY=0.25;entryDx=0;entryDy=0;" edge="1" parent="1" source="KVkupCU21q3vFvp9AV5L-14" target="KVkupCU21q3vFvp9AV5L-11">
          <mxGeometry relative="1" as="geometry" />
        </mxCell>
        <mxCell id="KVkupCU21q3vFvp9AV5L-36" value="play" style="edgeStyle=orthogonalEdgeStyle;rounded=0;orthogonalLoop=1;jettySize=auto;html=1;exitX=0.25;exitY=1;exitDx=0;exitDy=0;entryX=0.125;entryY=-0.025;entryDx=0;entryDy=0;entryPerimeter=0;" edge="1" parent="1" source="KVkupCU21q3vFvp9AV5L-21" target="KVkupCU21q3vFvp9AV5L-6">
          <mxGeometry relative="1" as="geometry" />
        </mxCell>
        <mxCell id="KVkupCU21q3vFvp9AV5L-37" value="finished" style="endArrow=classic;html=1;rounded=0;entryX=0.75;entryY=1;entryDx=0;entryDy=0;exitX=0.937;exitY=-0.002;exitDx=0;exitDy=0;exitPerimeter=0;" edge="1" parent="1" source="KVkupCU21q3vFvp9AV5L-1" target="KVkupCU21q3vFvp9AV5L-21">
          <mxGeometry width="50" height="50" relative="1" as="geometry">
            <mxPoint x="540" y="180" as="sourcePoint" />
            <mxPoint x="400" y="350" as="targetPoint" />
          </mxGeometry>
        </mxCell>
      </root>
    </mxGraphModel>
  </diagram>
</mxfile>
